<svg width="224" height="192" viewBox="0 0 224 192" fill="none" xmlns="http://www.w3.org/2000/svg">
<rect x="16" width="192" height="192" rx="40" fill="black"/>
<path d="M39.158 82.34C40.166 82.448 41.3 82.538 42.56 82.61C43.82 82.646 44.9 82.664 45.8 82.664H73.016C73.808 82.664 74.672 82.664 75.608 82.664C76.58 82.628 77.3 82.592 77.768 82.556C77.732 83.168 77.696 83.96 77.66 84.932C77.624 85.868 77.606 86.732 77.606 87.524V115.496C77.606 116.432 77.624 117.53 77.66 118.79C77.732 120.05 77.786 121.076 77.822 121.868H69.992C70.028 121.076 70.046 120.212 70.046 119.276C70.082 118.304 70.1 117.332 70.1 116.36V89.63H45.854C44.702 89.63 43.478 89.648 42.182 89.684C40.922 89.72 39.914 89.774 39.158 89.846V82.34ZM38.456 111.662C39.392 111.734 40.436 111.806 41.588 111.878C42.776 111.95 43.982 111.986 45.206 111.986H74.366V119.06H45.422C44.378 119.06 43.172 119.096 41.804 119.168C40.472 119.24 39.356 119.312 38.456 119.384V111.662ZM100.07 78.398C101.474 78.578 103.166 78.848 105.146 79.208C107.162 79.532 109.286 79.91 111.518 80.342C113.786 80.774 116.036 81.26 118.268 81.8C120.536 82.304 122.624 82.808 124.532 83.312C126.476 83.816 128.132 84.302 129.5 84.77L126.746 91.52C125.486 91.052 123.92 90.566 122.048 90.062C120.176 89.522 118.142 88.982 115.946 88.442C113.75 87.902 111.536 87.398 109.304 86.93C107.072 86.462 104.93 86.03 102.878 85.634C100.862 85.238 99.08 84.95 97.532 84.77L100.07 78.398ZM97.586 92.924C99.53 93.248 101.762 93.662 104.282 94.166C106.802 94.67 109.394 95.228 112.058 95.84C114.722 96.416 117.26 97.028 119.672 97.676C122.084 98.288 124.136 98.9 125.828 99.512L123.182 106.262C121.634 105.65 119.672 105.02 117.296 104.372C114.956 103.724 112.454 103.076 109.79 102.428C107.162 101.78 104.552 101.204 101.96 100.7C99.368 100.16 97.082 99.746 95.102 99.458L97.586 92.924ZM94.832 108.368C96.668 108.656 98.756 109.034 101.096 109.502C103.436 109.97 105.866 110.492 108.386 111.068C110.942 111.644 113.444 112.238 115.892 112.85C118.34 113.462 120.608 114.074 122.696 114.686C124.82 115.298 126.62 115.892 128.096 116.468L125.126 123.218C123.686 122.606 121.904 121.976 119.78 121.328C117.656 120.716 115.352 120.104 112.868 119.492C110.384 118.844 107.882 118.25 105.362 117.71C102.842 117.134 100.43 116.63 98.126 116.198C95.858 115.766 93.86 115.424 92.132 115.172L94.832 108.368ZM162.926 78.398C162.602 79.082 162.278 79.838 161.954 80.666C161.63 81.494 161.36 82.196 161.144 82.772C160.82 83.672 160.424 84.68 159.956 85.796C159.524 86.912 159.056 88.046 158.552 89.198C158.084 90.314 157.598 91.34 157.094 92.276C156.41 93.644 155.546 95.12 154.502 96.704C153.494 98.252 152.414 99.746 151.262 101.186C150.11 102.59 148.922 103.814 147.698 104.858L140.948 100.754C141.92 100.07 142.838 99.26 143.702 98.324C144.602 97.388 145.448 96.416 146.24 95.408C147.068 94.4 147.824 93.41 148.508 92.438C149.192 91.43 149.786 90.494 150.29 89.63C151.01 88.406 151.622 87.128 152.126 85.796C152.666 84.464 153.098 83.294 153.422 82.286C153.746 81.386 153.998 80.45 154.178 79.478C154.394 78.47 154.52 77.552 154.556 76.724L162.926 78.398ZM154.394 86.714C155.006 86.714 155.906 86.714 157.094 86.714C158.282 86.714 159.668 86.714 161.252 86.714C162.836 86.714 164.492 86.714 166.22 86.714C167.984 86.714 169.73 86.714 171.458 86.714C173.222 86.714 174.86 86.714 176.372 86.714C177.92 86.714 179.252 86.714 180.368 86.714C181.52 86.714 182.366 86.714 182.906 86.714C183.626 86.714 184.526 86.696 185.606 86.66C186.686 86.588 187.658 86.48 188.522 86.336V93.734C187.514 93.626 186.47 93.572 185.39 93.572C184.346 93.536 183.518 93.518 182.906 93.518C182.294 93.518 181.268 93.518 179.828 93.518C178.388 93.518 176.714 93.518 174.806 93.518C172.898 93.518 170.882 93.518 168.758 93.518C166.67 93.518 164.636 93.518 162.656 93.518C160.676 93.518 158.912 93.518 157.364 93.518C155.816 93.518 154.628 93.518 153.8 93.518L154.394 86.714ZM175.454 90.602C175.382 94.598 174.968 98.27 174.212 101.618C173.456 104.93 172.376 107.936 170.972 110.636C169.604 113.336 167.912 115.784 165.896 117.98C163.88 120.14 161.576 122.03 158.984 123.65L151.694 118.736C152.666 118.34 153.602 117.89 154.502 117.386C155.402 116.846 156.176 116.306 156.824 115.766C158.372 114.578 159.794 113.228 161.09 111.716C162.422 110.168 163.592 108.386 164.6 106.37C165.644 104.318 166.454 101.996 167.03 99.404C167.642 96.812 167.966 93.878 168.002 90.602H175.454Z" fill="white"/>
</svg>
